<svg width="630" height="350" viewBox="0 0 630 350" fill="none" xmlns="http://www.w3.org/2000/svg">
    <path d="M194.461 97.4899L233.5 263M194.461 97.4899L86.4603 191.619L233.5 263M194.461 97.4899L349.926 159.3M233.5 263L234.5 263.5L349.926 159.3M349.926 159.3L375.467 130.829L418.188 146.197M349.926 159.3L382.383 298.072"
          stroke="#152536" stroke-width="7"/>
    <circle cx="86.1915" cy="210.668" r="67.3704" transform="rotate(-5.65728 86.1915 210.668)" stroke="#152536"
            stroke-width="7"/>
    <path d="M612.014 149.775C613.095 160.688 612.067 165.834 610.211 168.731C608.392 171.57 605.37 172.974 599.672 175.111C599.348 175.233 599.017 175.356 598.681 175.482C593.324 177.482 586.475 180.038 578.727 185.3C570.483 190.899 561.346 199.465 551.622 213.508C546.994 220.192 540.74 222.755 533.644 222.419C526.339 222.074 518.008 218.62 509.905 212.834C493.624 201.209 479.732 181.255 477.93 163.057C474.262 126.031 501.304 93.0417 538.331 89.3738C575.357 85.706 608.346 112.748 612.014 149.775Z"
          stroke="#152536" stroke-width="7"/>
    <path d="M437.96 276.405C449.294 270.738 474.76 256.605 485.96 245.405" stroke="black" stroke-width="7"/>
    <path d="M426.96 297.905C438.794 298.905 472.46 291.905 512.46 255.905" stroke="black" stroke-width="7"/>
    <path d="M245.779 82.5589L205.337 66.5368M164.895 50.5148L205.337 66.5368M205.337 66.5368L194.412 99.8502"
          stroke="black" stroke-width="7"/>
</svg>
