<svg width="93" height="27" viewBox="0 0 93 27" fill="white" xmlns="http://www.w3.org/2000/svg">
    <path d="M26.9631 9.81534H30.3295C30.3011 7.09517 28.1349 5.25568 24.7543 5.25568C21.4304 5.25568 19.0369 7.06676 19.0582 9.77273C19.0511 11.9815 20.5994 13.2244 23.1136 13.7997L24.6335 14.1548C26.2315 14.5241 26.9489 14.9574 26.9631 15.7741C26.9489 16.6619 26.1179 17.2798 24.7045 17.2798C23.1491 17.2798 22.1264 16.5554 22.0483 15.1562H18.6818C18.7244 18.5582 21.0895 20.1847 24.7472 20.1847C28.3693 20.1847 30.5142 18.544 30.5284 15.7812C30.5142 13.4588 28.9446 12.0384 26.0753 11.4062L24.8253 11.1222C23.5043 10.8381 22.6662 10.3977 22.6946 9.53125C22.7017 8.7358 23.3835 8.16051 24.7472 8.16051C26.1179 8.16051 26.8707 8.77841 26.9631 9.81534ZM37.4034 20.206C40.2656 20.206 42.1477 18.821 42.5455 16.6761L39.3565 16.5838C39.0866 17.3082 38.3764 17.6989 37.4673 17.6989C36.1321 17.6989 35.3082 16.8111 35.3082 15.4759V15.3835H42.581V14.517C42.581 10.9233 40.3935 8.94886 37.2969 8.94886C34.0014 8.94886 31.8849 11.2074 31.8849 14.5881C31.8849 18.0824 33.973 20.206 37.4034 20.206ZM35.3082 13.3665C35.358 12.2798 36.2173 11.456 37.3679 11.456C38.5114 11.456 39.3352 12.2514 39.3494 13.3665H35.3082ZM44.3548 20H47.8278V14.0767C47.8278 12.777 48.7511 11.9034 49.994 11.9034C50.4059 11.9034 51.0238 11.9744 51.3576 12.0881V9.0696C51.0664 8.99148 50.7042 8.94176 50.3846 8.94176C49.1914 8.94176 48.2397 9.63778 47.842 11.0795H47.7283V9.09091H44.3548V20ZM63.6871 9.09091H60.0295L58.0124 16.6051H57.8988L55.8888 9.09091H52.2312L55.967 20H59.9442L63.6871 9.09091ZM65.0188 20H68.4918V9.09091H65.0188V20ZM66.7589 7.8196C67.7461 7.8196 68.5415 7.07386 68.5415 6.15767C68.5415 5.24148 67.7461 4.50284 66.7589 4.50284C65.7788 4.50284 64.9762 5.24148 64.9762 6.15767C64.9762 7.07386 65.7788 7.8196 66.7589 7.8196ZM75.7947 20.206C78.8629 20.206 80.7663 18.4233 80.8587 15.7244H77.6129C77.4851 16.8821 76.7891 17.5142 75.8374 17.5142C74.6158 17.5142 73.8203 16.4844 73.8203 14.5455C73.8203 12.6207 74.6229 11.5909 75.8374 11.5909C76.8317 11.5909 77.478 12.2656 77.6129 13.3807H80.8587C80.7805 10.696 78.8203 8.94886 75.7876 8.94886C72.3572 8.94886 70.2834 11.2358 70.2834 14.581C70.2834 17.9119 72.343 20.206 75.7947 20.206ZM87.7354 20.206C90.5977 20.206 92.4798 18.821 92.8775 16.6761L89.6886 16.5838C89.4187 17.3082 88.7085 17.6989 87.7994 17.6989C86.4641 17.6989 85.6403 16.8111 85.6403 15.4759V15.3835H92.913V14.517C92.913 10.9233 90.7255 8.94886 87.6289 8.94886C84.3335 8.94886 82.217 11.2074 82.217 14.5881C82.217 18.0824 84.305 20.206 87.7354 20.206ZM85.6403 13.3665C85.69 12.2798 86.5494 11.456 87.6999 11.456C88.8434 11.456 89.6673 12.2514 89.6815 13.3665H85.6403Z" fill="white"/>
    <path d="M12.0765 23.0028L6.72319 11.4977C5.73039 11.5216 4.7522 11.2553 3.90851 10.7314C3.06482 10.2076 2.39228 9.44901 1.97333 8.54862C1.55438 7.64823 1.40722 6.64518 1.54989 5.6624C1.69256 4.67961 2.11885 3.7598 2.77653 3.0157L4.75029 7.25763L7.03362 7.32192L8.45503 5.53382L6.48213 1.29374C7.47493 1.26988 8.45312 1.53619 9.29682 2.06002C10.1405 2.58385 10.813 3.34245 11.232 4.24284C11.6509 5.14322 11.7981 6.14628 11.6554 7.12906C11.5128 8.11185 11.0865 9.03166 10.4288 9.77575L15.7812 21.279C16.0098 21.7703 16.0339 22.3322 15.8481 22.8413C15.6624 23.3503 15.282 23.7647 14.7908 23.9933C14.2995 24.2219 13.7375 24.2459 13.2285 24.0602C12.7195 23.8744 12.3051 23.4941 12.0765 23.0028Z" fill="white"/>
</svg>
